<mxfile host="www.draw.io" modified="2020-02-27T09:37:53.398Z" agent="Mozilla/5.0 (X11; Ubuntu; Linux x86_64; rv:72.0) Gecko/20100101 Firefox/72.0" etag="Vm24ZnBHAr4M9V-0PDVb" version="12.7.8" type="github">
  <diagram id="zA8VsBheuBRrl_neqVgZ" name="Page-1">
    <mxGraphModel dx="1422" dy="1931" grid="1" gridSize="10" guides="1" tooltips="1" connect="1" arrows="1" fold="1" page="1" pageScale="1" pageWidth="850" pageHeight="1100" math="0" shadow="0">
      <root>
        <mxCell id="0" />
        <mxCell id="1" parent="0" />
        <mxCell id="JU47VE_lCFR2i_xXfKO_-4" style="edgeStyle=orthogonalEdgeStyle;rounded=0;orthogonalLoop=1;jettySize=auto;html=1;" parent="1" source="JU47VE_lCFR2i_xXfKO_-1" target="JU47VE_lCFR2i_xXfKO_-2" edge="1">
          <mxGeometry relative="1" as="geometry">
            <Array as="points">
              <mxPoint x="80" y="1370" />
            </Array>
          </mxGeometry>
        </mxCell>
        <mxCell id="JU47VE_lCFR2i_xXfKO_-15" style="edgeStyle=orthogonalEdgeStyle;rounded=0;orthogonalLoop=1;jettySize=auto;html=1;entryX=0;entryY=0.5;entryDx=0;entryDy=0;" parent="1" source="JU47VE_lCFR2i_xXfKO_-1" target="JU47VE_lCFR2i_xXfKO_-13" edge="1">
          <mxGeometry relative="1" as="geometry">
            <Array as="points">
              <mxPoint x="80" y="160" />
            </Array>
          </mxGeometry>
        </mxCell>
        <mxCell id="JU47VE_lCFR2i_xXfKO_-1" value="Main" style="rounded=0;whiteSpace=wrap;html=1;" parent="1" vertex="1">
          <mxGeometry x="30" y="50" width="120" height="60" as="geometry" />
        </mxCell>
        <mxCell id="JU47VE_lCFR2i_xXfKO_-6" style="edgeStyle=orthogonalEdgeStyle;rounded=0;orthogonalLoop=1;jettySize=auto;html=1;" parent="1" source="JU47VE_lCFR2i_xXfKO_-2" target="JU47VE_lCFR2i_xXfKO_-5" edge="1">
          <mxGeometry relative="1" as="geometry" />
        </mxCell>
        <mxCell id="JU47VE_lCFR2i_xXfKO_-9" style="edgeStyle=orthogonalEdgeStyle;rounded=0;orthogonalLoop=1;jettySize=auto;html=1;entryX=0;entryY=0.5;entryDx=0;entryDy=0;" parent="1" source="JU47VE_lCFR2i_xXfKO_-2" target="JU47VE_lCFR2i_xXfKO_-8" edge="1">
          <mxGeometry relative="1" as="geometry">
            <mxPoint x="250" y="1570" as="targetPoint" />
            <Array as="points">
              <mxPoint x="255" y="1370" />
              <mxPoint x="255" y="1920" />
            </Array>
          </mxGeometry>
        </mxCell>
        <mxCell id="JU47VE_lCFR2i_xXfKO_-10" style="edgeStyle=orthogonalEdgeStyle;rounded=0;orthogonalLoop=1;jettySize=auto;html=1;entryX=0;entryY=0.5;entryDx=0;entryDy=0;" parent="1" source="JU47VE_lCFR2i_xXfKO_-2" target="JU47VE_lCFR2i_xXfKO_-7" edge="1">
          <mxGeometry relative="1" as="geometry" />
        </mxCell>
        <mxCell id="JU47VE_lCFR2i_xXfKO_-2" value="Simulator.Start()" style="rounded=0;whiteSpace=wrap;html=1;" parent="1" vertex="1">
          <mxGeometry x="110" y="1340" width="120" height="60" as="geometry" />
        </mxCell>
        <mxCell id="JU47VE_lCFR2i_xXfKO_-12" style="edgeStyle=orthogonalEdgeStyle;rounded=0;orthogonalLoop=1;jettySize=auto;html=1;entryX=0;entryY=0.5;entryDx=0;entryDy=0;" parent="1" source="JU47VE_lCFR2i_xXfKO_-5" target="JU47VE_lCFR2i_xXfKO_-11" edge="1">
          <mxGeometry relative="1" as="geometry" />
        </mxCell>
        <mxCell id="JU47VE_lCFR2i_xXfKO_-5" value="allDatanodes.start() = new AllDatanode();" style="rounded=0;whiteSpace=wrap;html=1;" parent="1" vertex="1">
          <mxGeometry x="280" y="1340" width="140" height="60" as="geometry" />
        </mxCell>
        <mxCell id="0iTcsFP1lSR9jo0iLhN2-6" style="edgeStyle=orthogonalEdgeStyle;rounded=0;orthogonalLoop=1;jettySize=auto;html=1;entryX=0;entryY=0.5;entryDx=0;entryDy=0;" edge="1" parent="1" source="JU47VE_lCFR2i_xXfKO_-7" target="0iTcsFP1lSR9jo0iLhN2-4">
          <mxGeometry relative="1" as="geometry" />
        </mxCell>
        <mxCell id="0iTcsFP1lSR9jo0iLhN2-14" style="edgeStyle=orthogonalEdgeStyle;rounded=0;orthogonalLoop=1;jettySize=auto;html=1;exitX=1;exitY=0.75;exitDx=0;exitDy=0;entryX=0;entryY=0.75;entryDx=0;entryDy=0;" edge="1" parent="1" source="JU47VE_lCFR2i_xXfKO_-7" target="0iTcsFP1lSR9jo0iLhN2-11">
          <mxGeometry relative="1" as="geometry" />
        </mxCell>
        <mxCell id="JU47VE_lCFR2i_xXfKO_-7" value="Namenode.start()" style="rounded=0;whiteSpace=wrap;html=1;" parent="1" vertex="1">
          <mxGeometry x="280" y="1560" width="120" height="60" as="geometry" />
        </mxCell>
        <mxCell id="0iTcsFP1lSR9jo0iLhN2-19" style="edgeStyle=orthogonalEdgeStyle;rounded=0;orthogonalLoop=1;jettySize=auto;html=1;exitX=1;exitY=0.5;exitDx=0;exitDy=0;" edge="1" parent="1" source="JU47VE_lCFR2i_xXfKO_-8" target="0iTcsFP1lSR9jo0iLhN2-17">
          <mxGeometry relative="1" as="geometry" />
        </mxCell>
        <mxCell id="JU47VE_lCFR2i_xXfKO_-8" value="StartFailure()" style="rounded=0;whiteSpace=wrap;html=1;" parent="1" vertex="1">
          <mxGeometry x="260" y="1890" width="120" height="60" as="geometry" />
        </mxCell>
        <mxCell id="rZpP8SGYZrVl_NE0W-DY-2" style="edgeStyle=orthogonalEdgeStyle;rounded=0;orthogonalLoop=1;jettySize=auto;html=1;exitX=1;exitY=0.5;exitDx=0;exitDy=0;" parent="1" source="JU47VE_lCFR2i_xXfKO_-11" target="rZpP8SGYZrVl_NE0W-DY-1" edge="1">
          <mxGeometry relative="1" as="geometry" />
        </mxCell>
        <mxCell id="rZpP8SGYZrVl_NE0W-DY-4" value="" style="edgeStyle=orthogonalEdgeStyle;rounded=0;orthogonalLoop=1;jettySize=auto;html=1;" parent="1" source="JU47VE_lCFR2i_xXfKO_-11" target="rZpP8SGYZrVl_NE0W-DY-1" edge="1">
          <mxGeometry relative="1" as="geometry" />
        </mxCell>
        <mxCell id="rZpP8SGYZrVl_NE0W-DY-5" style="edgeStyle=orthogonalEdgeStyle;rounded=0;orthogonalLoop=1;jettySize=auto;html=1;exitX=1;exitY=0.75;exitDx=0;exitDy=0;entryX=0;entryY=0.5;entryDx=0;entryDy=0;" parent="1" source="JU47VE_lCFR2i_xXfKO_-11" target="rZpP8SGYZrVl_NE0W-DY-3" edge="1">
          <mxGeometry relative="1" as="geometry" />
        </mxCell>
        <mxCell id="JU47VE_lCFR2i_xXfKO_-11" value="new AllDatanode();" style="rounded=0;whiteSpace=wrap;html=1;" parent="1" vertex="1">
          <mxGeometry x="470" y="1340" width="120" height="60" as="geometry" />
        </mxCell>
        <mxCell id="JU47VE_lCFR2i_xXfKO_-18" style="edgeStyle=orthogonalEdgeStyle;rounded=0;orthogonalLoop=1;jettySize=auto;html=1;entryX=0;entryY=0.5;entryDx=0;entryDy=0;" parent="1" source="JU47VE_lCFR2i_xXfKO_-13" edge="1">
          <mxGeometry relative="1" as="geometry">
            <mxPoint x="320" y="170" as="targetPoint" />
          </mxGeometry>
        </mxCell>
        <mxCell id="JU47VE_lCFR2i_xXfKO_-13" value="&lt;div&gt;Simulator.init(ConfigFile)&lt;/div&gt;" style="rounded=0;whiteSpace=wrap;html=1;" parent="1" vertex="1">
          <mxGeometry x="120" y="130" width="160" height="80" as="geometry" />
        </mxCell>
        <mxCell id="JU47VE_lCFR2i_xXfKO_-29" style="edgeStyle=orthogonalEdgeStyle;rounded=0;orthogonalLoop=1;jettySize=auto;html=1;entryX=0;entryY=0.5;entryDx=0;entryDy=0;" parent="1" target="JU47VE_lCFR2i_xXfKO_-20" edge="1">
          <mxGeometry relative="1" as="geometry">
            <mxPoint x="340" y="210" as="sourcePoint" />
            <Array as="points">
              <mxPoint x="400" y="210" />
              <mxPoint x="400" y="290" />
              <mxPoint x="440" y="290" />
            </Array>
          </mxGeometry>
        </mxCell>
        <mxCell id="JU47VE_lCFR2i_xXfKO_-30" style="edgeStyle=orthogonalEdgeStyle;rounded=0;orthogonalLoop=1;jettySize=auto;html=1;entryX=0;entryY=0.5;entryDx=0;entryDy=0;" parent="1" target="JU47VE_lCFR2i_xXfKO_-21" edge="1">
          <mxGeometry relative="1" as="geometry">
            <mxPoint x="340" y="210" as="sourcePoint" />
            <Array as="points">
              <mxPoint x="400" y="210" />
              <mxPoint x="400" y="400" />
              <mxPoint x="440" y="400" />
            </Array>
          </mxGeometry>
        </mxCell>
        <mxCell id="JU47VE_lCFR2i_xXfKO_-31" style="edgeStyle=orthogonalEdgeStyle;rounded=0;orthogonalLoop=1;jettySize=auto;html=1;entryX=0;entryY=0.5;entryDx=0;entryDy=0;" parent="1" target="JU47VE_lCFR2i_xXfKO_-22" edge="1">
          <mxGeometry relative="1" as="geometry">
            <mxPoint x="340" y="210" as="sourcePoint" />
            <Array as="points">
              <mxPoint x="400" y="210" />
              <mxPoint x="400" y="1170" />
            </Array>
          </mxGeometry>
        </mxCell>
        <mxCell id="JU47VE_lCFR2i_xXfKO_-24" style="edgeStyle=orthogonalEdgeStyle;rounded=0;orthogonalLoop=1;jettySize=auto;html=1;" parent="1" source="JU47VE_lCFR2i_xXfKO_-20" edge="1">
          <mxGeometry relative="1" as="geometry">
            <mxPoint x="620" y="290" as="targetPoint" />
          </mxGeometry>
        </mxCell>
        <mxCell id="JU47VE_lCFR2i_xXfKO_-20" value="initializeDatanodes()" style="rounded=0;whiteSpace=wrap;html=1;" parent="1" vertex="1">
          <mxGeometry x="440" y="260" width="120" height="60" as="geometry" />
        </mxCell>
        <mxCell id="JU47VE_lCFR2i_xXfKO_-42" style="edgeStyle=orthogonalEdgeStyle;rounded=0;orthogonalLoop=1;jettySize=auto;html=1;entryX=0;entryY=0.5;entryDx=0;entryDy=0;" parent="1" source="JU47VE_lCFR2i_xXfKO_-21" target="JU47VE_lCFR2i_xXfKO_-41" edge="1">
          <mxGeometry relative="1" as="geometry" />
        </mxCell>
        <mxCell id="JU47VE_lCFR2i_xXfKO_-21" value="initializeNamnode()" style="rounded=0;whiteSpace=wrap;html=1;" parent="1" vertex="1">
          <mxGeometry x="440" y="370" width="120" height="60" as="geometry" />
        </mxCell>
        <mxCell id="JU47VE_lCFR2i_xXfKO_-58" style="edgeStyle=orthogonalEdgeStyle;rounded=0;orthogonalLoop=1;jettySize=auto;html=1;entryX=0;entryY=0.5;entryDx=0;entryDy=0;" parent="1" source="JU47VE_lCFR2i_xXfKO_-22" target="JU47VE_lCFR2i_xXfKO_-57" edge="1">
          <mxGeometry relative="1" as="geometry" />
        </mxCell>
        <mxCell id="JU47VE_lCFR2i_xXfKO_-60" style="edgeStyle=orthogonalEdgeStyle;rounded=0;orthogonalLoop=1;jettySize=auto;html=1;entryX=0;entryY=0.5;entryDx=0;entryDy=0;" parent="1" source="JU47VE_lCFR2i_xXfKO_-22" target="JU47VE_lCFR2i_xXfKO_-59" edge="1">
          <mxGeometry relative="1" as="geometry" />
        </mxCell>
        <mxCell id="JU47VE_lCFR2i_xXfKO_-22" value="initializeBlocks()" style="rounded=0;whiteSpace=wrap;html=1;" parent="1" vertex="1">
          <mxGeometry x="440" y="1140" width="120" height="60" as="geometry" />
        </mxCell>
        <mxCell id="JU47VE_lCFR2i_xXfKO_-35" value="&lt;div&gt;Initializes Namenode, DataNode and blocks.&lt;/div&gt;&lt;div&gt;Using corresponding functions&lt;/div&gt;" style="ellipse;whiteSpace=wrap;html=1;" parent="1" vertex="1">
          <mxGeometry x="320" y="130" width="170" height="100" as="geometry" />
        </mxCell>
        <mxCell id="JU47VE_lCFR2i_xXfKO_-40" style="edgeStyle=orthogonalEdgeStyle;rounded=0;orthogonalLoop=1;jettySize=auto;html=1;entryX=0;entryY=0.5;entryDx=0;entryDy=0;" parent="1" source="JU47VE_lCFR2i_xXfKO_-36" target="JU47VE_lCFR2i_xXfKO_-39" edge="1">
          <mxGeometry relative="1" as="geometry" />
        </mxCell>
        <mxCell id="JU47VE_lCFR2i_xXfKO_-36" value="The constructor creates a list of nodes by using Datanode class" style="ellipse;whiteSpace=wrap;html=1;" parent="1" vertex="1">
          <mxGeometry x="790" y="250" width="120" height="80" as="geometry" />
        </mxCell>
        <mxCell id="JU47VE_lCFR2i_xXfKO_-38" style="edgeStyle=orthogonalEdgeStyle;rounded=0;orthogonalLoop=1;jettySize=auto;html=1;entryX=0;entryY=0.5;entryDx=0;entryDy=0;" parent="1" source="JU47VE_lCFR2i_xXfKO_-37" target="JU47VE_lCFR2i_xXfKO_-36" edge="1">
          <mxGeometry relative="1" as="geometry" />
        </mxCell>
        <mxCell id="JU47VE_lCFR2i_xXfKO_-37" value="AllDatanode()" style="rounded=0;whiteSpace=wrap;html=1;" parent="1" vertex="1">
          <mxGeometry x="620" y="260" width="120" height="60" as="geometry" />
        </mxCell>
        <mxCell id="JU47VE_lCFR2i_xXfKO_-39" value="&lt;div&gt;Datanode()&lt;/div&gt;&lt;div&gt;Initilalize node details&lt;/div&gt;" style="rounded=0;whiteSpace=wrap;html=1;" parent="1" vertex="1">
          <mxGeometry x="940" y="260" width="120" height="60" as="geometry" />
        </mxCell>
        <mxCell id="JU47VE_lCFR2i_xXfKO_-45" style="edgeStyle=orthogonalEdgeStyle;rounded=0;orthogonalLoop=1;jettySize=auto;html=1;entryX=0;entryY=0.5;entryDx=0;entryDy=0;" parent="1" source="JU47VE_lCFR2i_xXfKO_-41" target="JU47VE_lCFR2i_xXfKO_-43" edge="1">
          <mxGeometry relative="1" as="geometry">
            <Array as="points">
              <mxPoint x="650" y="490" />
            </Array>
          </mxGeometry>
        </mxCell>
        <mxCell id="JU47VE_lCFR2i_xXfKO_-46" style="edgeStyle=orthogonalEdgeStyle;rounded=0;orthogonalLoop=1;jettySize=auto;html=1;entryX=0;entryY=0.5;entryDx=0;entryDy=0;" parent="1" source="JU47VE_lCFR2i_xXfKO_-41" target="JU47VE_lCFR2i_xXfKO_-44" edge="1">
          <mxGeometry relative="1" as="geometry">
            <Array as="points">
              <mxPoint x="650" y="810" />
            </Array>
          </mxGeometry>
        </mxCell>
        <mxCell id="JU47VE_lCFR2i_xXfKO_-56" style="edgeStyle=orthogonalEdgeStyle;rounded=0;orthogonalLoop=1;jettySize=auto;html=1;entryX=0;entryY=0.5;entryDx=0;entryDy=0;" parent="1" source="JU47VE_lCFR2i_xXfKO_-41" target="JU47VE_lCFR2i_xXfKO_-55" edge="1">
          <mxGeometry relative="1" as="geometry">
            <Array as="points">
              <mxPoint x="650" y="1010" />
            </Array>
          </mxGeometry>
        </mxCell>
        <mxCell id="JU47VE_lCFR2i_xXfKO_-41" value="Namenode()" style="rounded=0;whiteSpace=wrap;html=1;" parent="1" vertex="1">
          <mxGeometry x="620" y="370" width="120" height="60" as="geometry" />
        </mxCell>
        <mxCell id="JU47VE_lCFR2i_xXfKO_-48" style="edgeStyle=orthogonalEdgeStyle;rounded=0;orthogonalLoop=1;jettySize=auto;html=1;entryX=0;entryY=0.5;entryDx=0;entryDy=0;" parent="1" source="JU47VE_lCFR2i_xXfKO_-43" target="JU47VE_lCFR2i_xXfKO_-47" edge="1">
          <mxGeometry relative="1" as="geometry" />
        </mxCell>
        <mxCell id="JU47VE_lCFR2i_xXfKO_-50" style="edgeStyle=orthogonalEdgeStyle;rounded=0;orthogonalLoop=1;jettySize=auto;html=1;entryX=0;entryY=0.5;entryDx=0;entryDy=0;" parent="1" source="JU47VE_lCFR2i_xXfKO_-43" target="JU47VE_lCFR2i_xXfKO_-49" edge="1">
          <mxGeometry relative="1" as="geometry" />
        </mxCell>
        <mxCell id="JU47VE_lCFR2i_xXfKO_-43" value="DatanodesMap()" style="rounded=0;whiteSpace=wrap;html=1;" parent="1" vertex="1">
          <mxGeometry x="670" y="460" width="120" height="60" as="geometry" />
        </mxCell>
        <mxCell id="JU47VE_lCFR2i_xXfKO_-54" style="edgeStyle=orthogonalEdgeStyle;rounded=0;orthogonalLoop=1;jettySize=auto;html=1;entryX=0;entryY=0.5;entryDx=0;entryDy=0;" parent="1" source="JU47VE_lCFR2i_xXfKO_-44" target="JU47VE_lCFR2i_xXfKO_-51" edge="1">
          <mxGeometry relative="1" as="geometry" />
        </mxCell>
        <mxCell id="JU47VE_lCFR2i_xXfKO_-44" value="BlocksMap()" style="rounded=0;whiteSpace=wrap;html=1;" parent="1" vertex="1">
          <mxGeometry x="670" y="780" width="120" height="60" as="geometry" />
        </mxCell>
        <mxCell id="JU47VE_lCFR2i_xXfKO_-47" value="Initializes Hashmap of integer and Datanode info (Info contains HeartBeat)" style="ellipse;whiteSpace=wrap;html=1;" parent="1" vertex="1">
          <mxGeometry x="770" y="530" width="200" height="80" as="geometry" />
        </mxCell>
        <mxCell id="JU47VE_lCFR2i_xXfKO_-49" value="Initializes list of heartbeats" style="ellipse;whiteSpace=wrap;html=1;" parent="1" vertex="1">
          <mxGeometry x="770" y="640" width="200" height="80" as="geometry" />
        </mxCell>
        <mxCell id="JU47VE_lCFR2i_xXfKO_-51" value="Initializes Hashmap &lt;br&gt;of integer and Block info" style="ellipse;whiteSpace=wrap;html=1;" parent="1" vertex="1">
          <mxGeometry x="770" y="850" width="200" height="80" as="geometry" />
        </mxCell>
        <mxCell id="JU47VE_lCFR2i_xXfKO_-55" value="DatanodesMap.getHeartbeats()" style="rounded=0;whiteSpace=wrap;html=1;" parent="1" vertex="1">
          <mxGeometry x="670" y="980" width="190" height="60" as="geometry" />
        </mxCell>
        <mxCell id="JU47VE_lCFR2i_xXfKO_-57" value="&lt;div&gt;Creates blocks.&lt;br&gt;&lt;/div&gt;&lt;div&gt;Adds block information to Namenode.&lt;/div&gt;" style="ellipse;whiteSpace=wrap;html=1;" parent="1" vertex="1">
          <mxGeometry x="670" y="1130" width="190" height="80" as="geometry" />
        </mxCell>
        <mxCell id="JU47VE_lCFR2i_xXfKO_-59" value="Stores information of block distribution in Namenode" style="ellipse;whiteSpace=wrap;html=1;" parent="1" vertex="1">
          <mxGeometry x="670" y="1240" width="190" height="80" as="geometry" />
        </mxCell>
        <mxCell id="rZpP8SGYZrVl_NE0W-DY-6" style="edgeStyle=orthogonalEdgeStyle;rounded=0;orthogonalLoop=1;jettySize=auto;html=1;" parent="1" source="rZpP8SGYZrVl_NE0W-DY-1" target="rZpP8SGYZrVl_NE0W-DY-7" edge="1">
          <mxGeometry relative="1" as="geometry">
            <mxPoint x="860" y="1370" as="targetPoint" />
          </mxGeometry>
        </mxCell>
        <mxCell id="rZpP8SGYZrVl_NE0W-DY-1" value="hbthread.start()" style="rounded=0;whiteSpace=wrap;html=1;" parent="1" vertex="1">
          <mxGeometry x="660" y="1340" width="120" height="60" as="geometry" />
        </mxCell>
        <mxCell id="0iTcsFP1lSR9jo0iLhN2-1" style="edgeStyle=orthogonalEdgeStyle;rounded=0;orthogonalLoop=1;jettySize=auto;html=1;" edge="1" parent="1" source="rZpP8SGYZrVl_NE0W-DY-3" target="0iTcsFP1lSR9jo0iLhN2-2">
          <mxGeometry relative="1" as="geometry">
            <mxPoint x="980" y="1455" as="targetPoint" />
          </mxGeometry>
        </mxCell>
        <mxCell id="rZpP8SGYZrVl_NE0W-DY-3" value="commandsthread.start()" style="rounded=0;whiteSpace=wrap;html=1;" parent="1" vertex="1">
          <mxGeometry x="660" y="1430" width="190" height="50" as="geometry" />
        </mxCell>
        <mxCell id="rZpP8SGYZrVl_NE0W-DY-7" value="Starts heartbeat sender daemon" style="rounded=1;whiteSpace=wrap;html=1;" parent="1" vertex="1">
          <mxGeometry x="840" y="1340" width="120" height="60" as="geometry" />
        </mxCell>
        <mxCell id="rZpP8SGYZrVl_NE0W-DY-8" value="Function call" style="rounded=0;whiteSpace=wrap;html=1;" parent="1" vertex="1">
          <mxGeometry x="730" y="30" width="120" height="60" as="geometry" />
        </mxCell>
        <mxCell id="rZpP8SGYZrVl_NE0W-DY-9" value="Daemon" style="rounded=1;whiteSpace=wrap;html=1;" parent="1" vertex="1">
          <mxGeometry x="890" y="30" width="120" height="60" as="geometry" />
        </mxCell>
        <mxCell id="rZpP8SGYZrVl_NE0W-DY-12" value="explanation" style="ellipse;whiteSpace=wrap;html=1;" parent="1" vertex="1">
          <mxGeometry x="1040" y="20" width="120" height="80" as="geometry" />
        </mxCell>
        <mxCell id="rZpP8SGYZrVl_NE0W-DY-13" value="LEGEND" style="text;html=1;strokeColor=none;fillColor=none;align=center;verticalAlign=middle;whiteSpace=wrap;rounded=0;" parent="1" vertex="1">
          <mxGeometry x="940" y="-40" width="40" height="100" as="geometry" />
        </mxCell>
        <mxCell id="0iTcsFP1lSR9jo0iLhN2-2" value="Command handler daemon" style="rounded=1;whiteSpace=wrap;html=1;" vertex="1" parent="1">
          <mxGeometry x="920" y="1425" width="120" height="60" as="geometry" />
        </mxCell>
        <mxCell id="0iTcsFP1lSR9jo0iLhN2-7" style="edgeStyle=orthogonalEdgeStyle;rounded=0;orthogonalLoop=1;jettySize=auto;html=1;" edge="1" parent="1" source="0iTcsFP1lSR9jo0iLhN2-4" target="0iTcsFP1lSR9jo0iLhN2-8">
          <mxGeometry relative="1" as="geometry">
            <mxPoint x="720" y="1590" as="targetPoint" />
          </mxGeometry>
        </mxCell>
        <mxCell id="0iTcsFP1lSR9jo0iLhN2-4" value="communicationthread.start()" style="rounded=0;whiteSpace=wrap;html=1;" vertex="1" parent="1">
          <mxGeometry x="480" y="1560" width="190" height="60" as="geometry" />
        </mxCell>
        <mxCell id="0iTcsFP1lSR9jo0iLhN2-8" value="Starts communication monitoring deamon" style="rounded=1;whiteSpace=wrap;html=1;" vertex="1" parent="1">
          <mxGeometry x="750" y="1560" width="120" height="60" as="geometry" />
        </mxCell>
        <mxCell id="0iTcsFP1lSR9jo0iLhN2-11" value="pendingReplications = new PendingReplicationBlocks()" style="rounded=0;whiteSpace=wrap;html=1;" vertex="1" parent="1">
          <mxGeometry x="480" y="1660" width="210" height="60" as="geometry" />
        </mxCell>
        <mxCell id="0iTcsFP1lSR9jo0iLhN2-15" value="" style="shape=step;perimeter=stepPerimeter;whiteSpace=wrap;html=1;fixedSize=1;" vertex="1" parent="1">
          <mxGeometry x="450" y="1875" width="320" height="85" as="geometry" />
        </mxCell>
        <mxCell id="0iTcsFP1lSR9jo0iLhN2-16" style="edgeStyle=orthogonalEdgeStyle;rounded=0;orthogonalLoop=1;jettySize=auto;html=1;" edge="1" parent="1" source="0iTcsFP1lSR9jo0iLhN2-17" target="0iTcsFP1lSR9jo0iLhN2-18">
          <mxGeometry relative="1" as="geometry" />
        </mxCell>
        <mxCell id="0iTcsFP1lSR9jo0iLhN2-17" value="Thread killer = new Thread(new NodeKiller())" style="text;html=1;" vertex="1" parent="1">
          <mxGeometry x="470" y="1905" width="270" height="30" as="geometry" />
        </mxCell>
        <mxCell id="0iTcsFP1lSR9jo0iLhN2-18" value="Simulator.getallDatanodes().killNode(e.getSource());" style="rounded=0;whiteSpace=wrap;html=1;" vertex="1" parent="1">
          <mxGeometry x="810" y="1890" width="330" height="60" as="geometry" />
        </mxCell>
      </root>
    </mxGraphModel>
  </diagram>
</mxfile>
